<svg width="18" height="18" viewBox="0 0 18 18" fill="none" xmlns="http://www.w3.org/2000/svg">
<path d="M12.9585 9.83317C13.5835 9.83317 14.1335 9.4915 14.4168 8.97484L17.4002 3.5665C17.7085 3.0165 17.3085 2.33317 16.6752 2.33317H4.34183L3.5585 0.666504H0.833496V2.33317H2.50016L5.50016 8.65817L4.37516 10.6915C3.76683 11.8082 4.56683 13.1665 5.8335 13.1665H15.8335V11.4998H5.8335L6.75016 9.83317H12.9585ZM5.1335 3.99984H15.2585L12.9585 8.1665H7.1085L5.1335 3.99984ZM5.8335 13.9998C4.91683 13.9998 4.17516 14.7498 4.17516 15.6665C4.17516 16.5832 4.91683 17.3332 5.8335 17.3332C6.75016 17.3332 7.50016 16.5832 7.50016 15.6665C7.50016 14.7498 6.75016 13.9998 5.8335 13.9998ZM14.1668 13.9998C13.2502 13.9998 12.5085 14.7498 12.5085 15.6665C12.5085 16.5832 13.2502 17.3332 14.1668 17.3332C15.0835 17.3332 15.8335 16.5832 15.8335 15.6665C15.8335 14.7498 15.0835 13.9998 14.1668 13.9998Z" fill="white"/>
</svg>
